<svg xmlns="http://www.w3.org/2000/svg" viewBox="0 0 1053 1053"><defs><style>.cls-1{fill:#ff5100;}</style></defs><g id="Warstwa_2" data-name="Warstwa 2"><g id="Warstwa_1-2" data-name="Warstwa 1"><circle class="cls-1" cx="526.5" cy="526.5" r="526.5"/></g><g id="Warstwa_3" data-name="Warstwa 3"><path d="M373.2,614h29.6c17.64,0,24.29,23.09,9.34,32.45-88.72,55.6-241.54,150.91-183.79,52.85a17.9,17.9,0,0,1,6.27-6.32q64.85-38.25,129.64-76.54A17.56,17.56,0,0,1,373.2,614Z"/><path d="M450.39,572.3c-16.11-36.89,17.95-116.64-44.08-106.64-58.91-37.45,169.63-27.76,102.59,4.26C418.12,436.53,512,575.72,450.39,572.3Z"/><path d="M272.85,565c30.34,46.2,41.8-96,101.21,12.21,29.69-11.43-12.05-69.5-8.19-92.06C358.77,379.67,282.19,539,272.85,565Zm49.87-45.52q12-20.19,18.79-31.87C348.27,514.79,350.11,519.33,322.72,519.52Z"/><path d="M32.24,531.58c-12.77-56.14,89.42-140.32,102.13-64.15C66.26,430.2,14.49,586.07,102.18,549.34c45.74-50.32-32.8,6.41-37-26.05-3.55-20.62,106.52-38.54,80.26,0C139.41,585.69,29.56,608.68,32.24,531.58Z"/><path d="M248.76,575.66c44.8-37.29-52.4-11,5.77-81.12,1.21-33.84-56.86-67.73-92.16-48.73-8.59,29.25-1.12,89.63-3.92,120C200.44,612.05,152,488.31,248.76,575.66ZM182.56,465.1c6.33.43,9.75.65,10.22.71C286.58,486,159.57,560.3,182.56,465.1Z"/><path d="M46.73,610.92H286L273.5,623.38C273.59,616.87,6.92,638.56,46.73,610.92Z"/><path d="M625.85,565c30.34,46.2,41.81-96,101.22,12.21,29.69-11.43-12.06-69.5-8.23-92.06C711.77,379.67,635.2,539,625.85,565Zm49.88-45.52q12-20.19,18.75-31.87C701.27,514.79,703.11,519.33,675.73,519.52Z"/><path d="M115.55,404.81c-.94-17.57,435.28-.4,441.76-6.23C550,426.53,126.27,411.82,115.55,404.81Z"/><path d="M754.17,420.58c-26.75,0-98.41,0-131.35,0a8.66,8.66,0,0,1-6.3-14.61c34.79-37.25,137-102.58,192-122.84,9.69-3.57,16.4,9.71,7.77,15.39C642,413.12,689.18,400,850.39,310c9.1-5.08,17.8,7.24,10,14.1-21.87,19.12-73.24,41.73-103.91,59.11-9.7,5.49-1.94,20.29,8,15.35,32.63-16.12,83-57.1,106.68-62.17a8.08,8.08,0,0,1,5.65.78c21,11.9-49.57,44.74-90.43,68.74a.59.59,0,0,0-.19.13c-12.25,9,1.1,13.8,24.24,5.67a9.2,9.2,0,0,0,1.36-.6c30.93-16.9,66.77-36.08,79.87-41.91a8.49,8.49,0,0,1,8.29.7c12.75,8.82-6.76,24.18-35.47,35.67-31.65,11.53-35.58,14.8-66.92,15-1,0-2.06,0-3.15,0Z"/><path d="M995.08,485.19C988,379.67,911.44,539,902.09,565c30.34,46.2,41.81-96,101.22,12.21C1033,565.82,991.25,507.75,995.08,485.19Zm-43.14,34.33q12-20.19,18.78-31.87C977.51,514.79,979.32,519.33,951.94,519.52Z"/><path d="M863.4,529.4c-.44-36.95.62-46.55-2-67.51,23.49-81.78,31,80.22,25.39,91.25-11.74,68.44-73.71-35-103.89-66.8-2.78,198.89-34.27,46.58-26.89-33.71C783.18,398.24,855,577.56,863.4,529.4Z"/><path d="M934.62,617.15c.93,17.57-435.26.41-441.73,6.23C500.21,595.44,923.93,610.14,934.62,617.15Z"/><path d="M601.83,471.39c-40.47-16.14-19.07,52.49-24.27,79.47,89.19,7.17-7.88,32.43-41.93,26.89C494.94,551,572.55,565,552.73,513.32c7.63-67.48-6-26.57-29.5-56.67C523,429.67,649,443.91,601.83,471.39Z"/><path d="M797.57,420.55l0,0h-3.12C795.51,420.58,796.54,420.58,797.57,420.55Z"/></g></g></svg>